<svg xmlns="http://www.w3.org/2000/svg" width="50.639" height="50.639" viewBox="0 0 50.639 50.639">
  <path id="Icon_awesome-twitter-square" data-name="Icon awesome-twitter-square" d="M45.214,2.25H5.426A5.427,5.427,0,0,0,0,7.676V47.463a5.427,5.427,0,0,0,5.426,5.426H45.214a5.427,5.427,0,0,0,5.426-5.426V7.676A5.427,5.427,0,0,0,45.214,2.25ZM39.686,20.2c.023.316.023.644.023.961,0,9.8-7.46,21.092-21.092,21.092A21,21,0,0,1,7.234,38.929a15.617,15.617,0,0,0,1.786.09,14.863,14.863,0,0,0,9.2-3.165,7.423,7.423,0,0,1-6.929-5.143,7.99,7.99,0,0,0,3.346-.136A7.414,7.414,0,0,1,8.7,23.3v-.09a7.408,7.408,0,0,0,3.346.938,7.4,7.4,0,0,1-3.3-6.172,7.321,7.321,0,0,1,1.006-3.741,21.05,21.05,0,0,0,15.282,7.754,7.429,7.429,0,0,1,12.649-6.771,14.527,14.527,0,0,0,4.7-1.786,7.394,7.394,0,0,1-3.255,4.081,14.753,14.753,0,0,0,4.273-1.153A15.6,15.6,0,0,1,39.686,20.2Z" transform="translate(0 -2.25)" fill="#532d6b"/>
</svg>
