<svg xmlns="http://www.w3.org/2000/svg" width="51.963" height="42.479" viewBox="0 0 51.963 42.479">
  <path id="Icon_awesome-sms" data-name="Icon awesome-sms" d="M25.981,2.25C11.631,2.25,0,11.078,0,21.972A16.986,16.986,0,0,0,5.785,34.365C4.516,39.144.274,43.4.223,43.448a.717.717,0,0,0-.152.825.8.8,0,0,0,.741.455,24.166,24.166,0,0,0,14.269-4.874,32.9,32.9,0,0,0,10.9,1.839c14.351,0,25.981-8.828,25.981-19.722S40.332,2.25,25.981,2.25ZM13.011,28.041H11.773a.789.789,0,0,1-.812-.759V25.765a.789.789,0,0,1,.812-.759h1.248c.609,0,1.055-.332,1.055-.626a.494.494,0,0,0-.213-.36l-2.223-1.783a3.419,3.419,0,0,1-1.35-2.664c0-2.02,1.928-3.66,4.3-3.66h1.238a.789.789,0,0,1,.812.759v1.517a.789.789,0,0,1-.812.759H14.584c-.609,0-1.055.332-1.055.626a.494.494,0,0,0,.213.36l2.223,1.783a3.419,3.419,0,0,1,1.35,2.664C17.324,26.4,15.386,28.041,13.011,28.041Zm19.466-.759a.789.789,0,0,1-.812.759H30.041a.789.789,0,0,1-.812-.759V20.815l-2.517,5.291a.837.837,0,0,1-1.451,0l-2.527-5.291v6.467a.789.789,0,0,1-.812.759H20.3a.789.789,0,0,1-.812-.759V17.421A1.578,1.578,0,0,1,21.11,15.9h1.624a1.632,1.632,0,0,1,1.451.834l1.8,3.357,1.8-3.357a1.644,1.644,0,0,1,1.451-.834h1.624a1.578,1.578,0,0,1,1.624,1.517Zm4.9.759H36.13a.789.789,0,0,1-.812-.759V25.765a.789.789,0,0,1,.812-.759h1.248c.609,0,1.055-.332,1.055-.626a.494.494,0,0,0-.213-.36L36,22.238a3.419,3.419,0,0,1-1.35-2.664c0-2.02,1.928-3.66,4.3-3.66H40.19a.789.789,0,0,1,.812.759v1.517a.789.789,0,0,1-.812.759H38.942c-.609,0-1.056.332-1.056.626a.494.494,0,0,0,.213.36l2.223,1.783a3.419,3.419,0,0,1,1.35,2.664C41.682,26.4,39.754,28.041,37.379,28.041Z" transform="translate(0 -2.25)" fill="#532d6b"/>
</svg>
