<svg xmlns="http://www.w3.org/2000/svg" width="50" height="50" viewBox="0 0 50 50">
    <path id="Icon_simple-whatsapp" data-name="Icon simple-whatsapp"
          d="M36.454,29.962c-.627-.312-3.681-1.806-4.25-2.012s-.985-.312-1.4.313-1.606,2.008-1.967,2.421-.727.438-1.346.156a16.908,16.908,0,0,1-5.006-3.094,18.9,18.9,0,0,1-3.458-4.312c-.362-.625-.04-.969.271-1.281.283-.281.627-.719.94-1.09a5.281,5.281,0,0,0,.619-1.033,1.145,1.145,0,0,0-.052-1.092c-.156-.312-1.4-3.375-1.921-4.6-.5-1.217-1.015-1.063-1.4-1.063-.358-.031-.773-.031-1.19-.031a2.349,2.349,0,0,0-1.66.748,6.955,6.955,0,0,0-2.177,5.156c0,3.031,2.229,5.969,2.54,6.406.31.406,4.385,6.656,10.625,9.344,1.487.625,2.646,1,3.55,1.31a8.619,8.619,0,0,0,3.917.252c1.2-.19,3.681-1.5,4.2-2.971a5.157,5.157,0,0,0,.375-2.969c-.154-.281-.562-.438-1.187-.719M25.127,45.313h-.033a20.841,20.841,0,0,1-10.531-2.875l-.75-.446L6,44.023l2.094-7.594-.5-.781a20.663,20.663,0,0,1,32.181-25.49,20.392,20.392,0,0,1,6.06,14.562,20.688,20.688,0,0,1-20.7,20.594M42.75,7.185A25.3,25.3,0,0,0,25.094,0,24.77,24.77,0,0,0,3.533,37.162L0,50l13.2-3.442a25.13,25.13,0,0,0,11.9,3.015h.013A24.875,24.875,0,0,0,50,24.79,24.571,24.571,0,0,0,42.719,7.267"
          fill="#532d6b"/>
</svg>
